<?xml version="1.0" encoding="UTF-8" standalone="no"?>
<svg
   id="img"
   fill="currentColor"
   class="bi bi-menu-app"
   viewBox="0 0 16 9"
   xmlns="http://www.w3.org/2000/svg">
  <g
     id="g1"
     transform="translate(0,-6)">
    <path
       d="M 0,8 A 2,2 0 0 1 2,6 h 12 a 2,2 0 0 1 2,2 v 5 a 2,2 0 0 1 -2,2 H 2 A 2,2 0 0 1 0,13 Z m 1,3 v 2 a 1,1 0 0 0 1,1 h 12 a 1,1 0 0 0 1,-1 V 11 Z M 15,10 V 8 A 1,1 0 0 0 14,7 H 2 A 1,1 0 0 0 1,8 v 2 z M 2,8.5 A 0.5,0.5 0 0 1 2.5,8 h 9 a 0.5,0.5 0 0 1 0,1 h -9 A 0.5,0.5 0 0 1 2,8.5 Z m 0,4 A 0.5,0.5 0 0 1 2.5,12 h 6 a 0.5,0.5 0 0 1 0,1 h -6 A 0.5,0.5 0 0 1 2,12.5 Z"
       id="path7" />
  </g>
</svg>
