<?xml version="1.0" encoding="UTF-8" standalone="no"?>
<svg
   width="10.6667in"
   height="10.6667in"
   xmlns:sodipodi="http://sodipodi.sourceforge.net/DTD/sodipodi-0.dtd"
   xmlns="http://www.w3.org/2000/svg"
   xmlns:svg="http://www.w3.org/2000/svg">
  <path
     fill="beige"
     stroke="#0000ff"
     stroke-width="1"
     d="m 501,157 c 21.70226,65.42915 78.91573,107.41624 149,112 l -13,-15 c 23.07,-3.11 34,-16.41 45,-36 h 2 c 11.94836,23.34946 10.82486,57.95598 11.6,59.82 2.09988,5.00872 32.8855,22.6865 43.05,53.18 9.87244,29.66227 -1.84029,46.26751 18.1,74 28.66127,34.28714 69.61736,53.70035 106.25,78 v 2 c -41.10371,66.05 -79.46706,86.17397 -151,76.83 -25.55786,5.61699 -11.08068,46.39254 15.3,77.17 10.51,12.27 21.27,21.6 25.7,38 -11.23,-8.04 -11.96,-12.52 -28,-15 20.44732,31.64143 11.47972,63.08712 11.09,97 -3.36,-3.09 -8.4,-7.89 -10.08,-12 -2.72653,-6.63263 -0.0699,-18.26393 -9.56,-33 C 702.07751,691.63126 678.59208,681.24745 669.1,667 648.63079,636.2449 654.19574,560.37717 710,560 v -2 c -15.72,0 -25.82,-0.59 -41,5.45 -54.66496,25.59682 -46.03281,66.08177 -40.21,114.55 4.66791,16.39796 18.89139,23.23028 26.06,50 5.81666,21.88174 0.83174,46.5348 2.15,53 8.4117,-20.63523 16.72405,-41.31012 25,-62 25.74211,43.24825 4.38904,8.22313 30,54 -72.54102,54.06033 -87.25217,63.82191 -112,69 -14.154,-79.95788 0.48331,-187.16158 0,-189 -9.99706,42.61187 -45.3844,96.03244 -41,118 5.48,-14.83 11.61,-14.31 20,-24 2.70212,11.11089 0.66042,69.17501 -4.13,89 -1.82,7.56 -2.09,11.84 -10.87,12 -54.92351,0.96835 -108.2294,-104.60295 -196,-122 l -7,-29 c -0.62,6.9 -4.97,19.63 -12,22 -4.79131,-33.77783 -3.09035,-67.17673 0,-101 -21.24112,35.90827 -20.25092,64.23608 -18,98 -32.12675,4.43765 -31.68721,-10.46912 -33,-35 -2.48,10.57 -14.48,30.88 -24,36 4.27566,-53.06615 7.14505,-104.38508 34,-152 -23.65273,27.67706 -46.30971,56.22739 -71,83 -0.92965,-38.29008 4.45784,-70.08914 33,-101 -27.41515,29.18088 -32.75999,25.98869 -72,64 24.32602,-79.73453 33.34199,-163.06111 76.06,-236 C 313.08886,311.81978 388.88108,243.91887 501,157 Z m -6,29 c -24.58984,28.33305 -61.3304,67.29667 -63,105 14.14392,-18.66372 27.87858,-37.60301 41,-57 -10.51012,25.30133 18.29019,60.25662 4,79 11.04,0 19.35,-0.9 30,3 -11.81173,8.21558 -24.48286,12.77788 -38,17 l 12,6 c -59.64943,-10.25029 -115.95747,9.43577 -161,49 16.59271,-43.61694 64.94861,-96.42273 71,-112 -85.86944,54.55364 -155.73622,223.84885 -148,245 40.91798,-75.85486 81.38374,-147.98442 175,-165 5.64051,-0.44705 19.29429,1.4604 17.7,9.87 -1.42524,4.22359 -9.12537,4.09112 -22.7,14.8 -16.04091,12.62436 -37.6781,41.18297 -40,46.33 42.61143,-18.32953 47.5277,-5.38124 55.67,-9.79 C 459.65191,358.54143 517.30153,332.01424 573,301 547.80752,300.76615 505.71272,278.97615 490,261 l 22,1 v -2 c -34.65268,-10.38171 -23.97704,-48.649 -17,-74 z m 79,94 -1,1 c 57.57071,13.46058 35.96135,10.95301 57,13.72 62.16435,3.92647 69.62201,37.3549 85.03,88.28 6.87301,18.27311 13.3397,36.54874 26.97,51 -59.66833,-29.39314 -43.39077,-6.94664 -109,-52 19.98744,2.00653 39.91572,3.96 60,3.96 -16.78072,-14.28245 -32.61645,-29.82852 -51,-42.1 -31.37297,-20.32003 -93.14653,-29.23742 -119,0.14 48.26813,-6.38349 55.65854,-0.10615 73,27 -10.15,-6.32 -20.53,-12.54 -33,-9 8.21,6.12 11.57,5.05 22,17 -22.28111,-8.28384 -70.76135,2.55793 -101,28 21.19405,5.0475 54.98821,-21.44583 89,11 -65.5876,-1.54455 -92.22728,53.07202 -118,102 30.31807,-21.19199 84.29314,-80.44847 126,-50 -49.46814,0.42718 -62.20326,46.89782 -80,113 14.25696,-12.06525 24.52463,-47.98074 67,-63.41 6.6,-2.4 19.21,-5.21 26,-3.59 -29.26416,15.70272 -43.20317,83.9828 -22,102 5.49388,-12.50863 25.42209,-26.60076 26.36,-29.18 -0.42366,-37.1236 24.13075,-66.65527 63.64,-71.82 -11.48718,5.56772 -17.5018,20.87164 -13,33 20.75661,-36.00055 45.61812,-39.47933 56,-34 -12.34,1.04 -27.87,8.16 -21,23 39.68391,-15.22087 92.38521,24.83475 92,-7 19.1514,9.64235 26.27022,-15.93148 4,-16 11.22431,-11.04278 24.65215,5.55702 26.76,-8.02 C 801.29003,486.44445 808.53175,484.59578 827,473 723.3583,440.60671 734.55764,351.13515 704.83,318 687.8,299.03 663.81,295.24 640,291.73 617.73826,289.29282 595.92571,284.38669 574,280 Z M 411,442 c -45.6524,30.23618 -98.00469,67.6367 -106,85 17.40289,-7.17327 34.75043,-14.46769 52,-22 -3.28371,5.05492 -16.27817,32.08047 -14,39 11.53439,-26.63899 61.44978,-84.87921 68,-102 z m 17,58 c -58.21904,19.1739 -83.3138,66.33533 -109,117 38.04998,-31.0957 107.47815,-113.75433 109,-117 z m 19,34 c -29.99521,11.06353 -63.88034,73.53356 -61,85 27.12653,-40.68979 35.9875,-19.13581 43.98,-29.58 9.97342,-13.06043 -14.18101,-2.71559 17.02,-55.42 z m 35,30 c -5.64008,4.40921 -70.32546,93.09101 -63,119 11.3,-13.13 9.23,-15.89 26,-26 -4.33914,24.79472 -0.79595,48.25968 7,72 13.21348,-45.08981 -7.6921,-58.92462 30,-165 z m 58,44 h -1 l 1,1 z m -1,1 c -29.95904,41.45637 -54.07602,110.70418 -30,160 0.32652,-2.34558 27.23085,-147.87233 30,-160 z m -276,42 c -5.78414,11.49617 1.80996,24.59914 1.96,36 -0.30484,8.40137 -11.49463,31.15445 -23.96,43 2.42737,-22.82696 -0.73141,-45.31407 -3,-68 11.26,-0.92 16.48,-3.69 25,-11 z m -64,193 c 1.62102,-19.80887 20.69619,-61.30372 58,-84.68 93.44964,-52.11094 173.12669,16.9433 241,74.55 65.83196,49.76813 110.72211,41.47887 194,-23.29 126.64243,-104.95942 203.77221,-27.57754 220,38.42 -3.61463,-2.69998 -11.67122,-31.6803 -48,-44 -73.8412,-25.18858 -116.96315,9.40924 -171,51.5 -85.40353,66.06429 -123.50489,60.29017 -154,50.17 C 453.01953,878.11024 390.17037,743.5392 254,800.01 229.12929,808.93274 215.32875,824.8394 199,844 Z m 41,35 c 2.40733,-28.58415 42.30108,-61.55522 80,-62 140.97895,-7.89175 181.39729,225.9136 385.98868,58.33545 C 821.59194,768.36059 879.98332,858.33973 887,883 c -5.37,-2.92 -3.55212,-2.97264 -9.42212,-7.33264 C 787.39199,808.64544 721.19561,953.8806 609.22525,976.4 476.74583,1010.3515 414.1967,847.76103 299,855.91 276.52851,856.40454 257.94704,866.87976 240,879 Z"/>
</svg>
