<?xml version="1.0" encoding="UTF-8" standalone="no"?>
<!DOCTYPE svg PUBLIC "-//W3C//DTD SVG 20010904//EN"
              "http://www.w3.org/TR/2001/REC-SVG-20010904/DTD/svg10.dtd">

<svg xmlns="http://www.w3.org/2000/svg"
     width="64.7756mm" height="8.04403mm"
     viewBox="0 0 306 38">
  <path id="Selection"
        fill="none" stroke="black" stroke-width="1"
        d="M 4.00,32.00
           C 2.99,24.31 2.90,20.72 3.00,13.00
             3.03,10.85 2.89,7.48 4.74,5.99
             6.18,4.83 9.22,5.01 11.00,5.00
             15.31,4.98 21.24,4.50 24.96,6.85
             31.60,11.07 32.05,24.59 25.89,29.35
             20.93,33.19 10.21,32.00 4.00,32.00 Z
           M 42.02,5.57
           C 46.95,4.67 55.84,4.06 59.87,7.43
             65.86,12.44 65.55,25.85 58.95,30.26
             55.83,32.35 51.61,32.04 48.00,32.00
             44.11,31.95 40.45,31.75 37.65,28.61
             34.10,24.63 34.06,13.44 37.01,9.13
             38.58,6.84 39.62,6.56 42.02,5.57 Z
           M 94.00,28.00
           C 93.44,29.61 93.47,30.54 91.69,31.40
             88.19,33.10 73.45,32.37 70.74,29.35
             68.35,26.70 68.98,19.54 69.00,16.00
             69.02,13.21 68.82,9.68 70.74,7.43
             73.98,3.61 89.40,4.69 94.00,6.00
             94.00,6.00 94.00,8.00 94.00,8.00
             87.30,9.90 79.77,8.01 76.23,10.17
             71.76,12.90 71.76,24.10 76.23,26.83
             79.20,28.64 90.07,28.00 94.00,28.00 Z
           M 99.00,5.00
           C 99.00,5.00 103.00,5.00 103.00,5.00
             103.00,5.00 103.00,32.00 103.00,32.00
             103.00,32.00 99.00,32.00 99.00,32.00
             99.00,32.00 99.00,5.00 99.00,5.00 Z
           M 106.00,16.00
           C 116.26,12.99 114.18,5.41 126.00,5.00
             126.00,5.00 113.00,19.00 113.00,19.00
             113.00,19.00 126.00,32.00 126.00,32.00
             114.18,31.59 116.26,24.01 106.00,21.00
             106.00,21.00 106.00,16.00 106.00,16.00 Z
           M 132.60,6.02
           C 136.03,4.56 150.56,4.03 153.26,6.74
             155.58,9.06 154.68,13.07 155.07,16.00
             155.58,19.88 161.41,29.99 151.98,31.89
             151.98,31.89 148.00,31.89 148.00,31.89
             145.06,32.04 134.56,32.53 132.60,30.98
             130.74,29.51 131.02,26.13 131.00,24.00
             130.97,19.20 129.92,9.76 132.60,6.02 Z
           M 163.00,5.00
           C 163.00,5.00 187.00,5.00 187.00,5.00
             187.00,5.00 187.00,9.00 187.00,9.00
             187.00,9.00 167.00,9.00 167.00,9.00
             167.00,12.30 166.40,23.28 168.02,25.56
             170.13,28.53 183.21,28.00 187.00,28.00
             187.00,28.00 187.00,32.00 187.00,32.00
             181.76,32.00 168.05,33.34 164.52,29.57
             161.32,26.14 163.00,10.40 163.00,5.00 Z
           M 216.00,32.00
           C 216.00,32.00 195.15,30.83 195.15,30.83
             195.15,30.83 192.60,27.89 192.60,27.89
             192.60,27.89 192.60,9.11 192.60,9.11
             192.60,9.11 195.15,6.17 195.15,6.17
             195.15,6.17 216.00,5.00 216.00,5.00
             216.00,5.00 216.00,9.00 216.00,9.00
             212.41,9.00 201.81,8.45 198.93,10.02
             195.09,12.42 194.46,24.23 198.93,26.62
             198.93,26.62 216.00,28.00 216.00,28.00
             216.00,28.00 216.00,32.00 216.00,32.00 Z
           M 234.00,5.00
           C 234.00,5.00 239.00,5.00 239.00,5.00
             239.00,5.00 239.00,24.00 239.00,24.00
             239.00,24.00 237.98,30.40 237.98,30.40
             237.98,30.40 234.00,32.00 234.00,32.00
             234.00,32.00 234.00,5.00 234.00,5.00 Z
           M 245.00,32.00
           C 245.00,32.00 245.00,14.00 245.00,14.00
             245.01,11.38 244.35,4.39 249.06,6.17
             252.51,7.47 263.86,20.45 267.00,24.00
             267.00,24.00 268.00,5.00 268.00,5.00
             268.00,5.00 272.00,5.00 272.00,5.00
             272.00,5.00 272.00,23.00 272.00,23.00
             271.99,25.62 272.65,32.61 267.94,30.83
             264.02,29.35 253.73,16.75 249.00,13.00
             249.00,13.00 249.00,32.00 249.00,32.00
             249.00,32.00 245.00,32.00 245.00,32.00 Z
           M 302.00,32.00
           C 297.75,32.00 284.28,32.69 281.23,30.83
             276.47,27.92 276.47,9.08 281.23,6.17
             284.28,4.31 297.75,5.00 302.00,5.00
             302.00,5.00 302.00,9.00 302.00,9.00
             298.41,9.00 287.81,8.45 285.15,10.02
             280.72,12.64 280.68,24.21 285.15,26.82
             287.05,27.94 298.92,27.93 302.00,28.00
             302.00,28.00 302.00,32.00 302.00,32.00 Z
           M 8.00,9.15
           C 8.00,9.15 8.00,21.00 8.00,21.00
             8.03,22.63 7.97,25.04 9.01,26.39
             10.21,27.94 12.52,27.78 14.29,27.83
             21.85,28.03 26.59,25.36 25.88,17.00
             25.66,14.46 24.94,12.44 22.77,10.93
             21.45,10.01 19.58,9.56 18.00,9.15
             18.00,9.15 8.00,9.15 8.00,9.15 Z
           M 45.02,9.43
           C 35.63,13.34 37.06,27.33 48.00,27.96
             50.74,28.11 54.47,28.05 56.70,26.26
             60.62,23.13 60.61,13.87 56.70,10.74
             53.77,8.39 48.49,8.90 45.02,9.43 Z
           M 138.00,16.00
           C 140.89,16.00 151.98,17.01 150.26,11.30
             149.31,8.17 138.71,8.35 136.60,10.02
             134.75,11.49 135.01,14.87 135.00,17.00
             134.99,19.18 134.64,24.61 135.99,26.25
             137.79,28.43 149.28,28.60 151.41,26.83
             153.42,25.15 152.50,21.87 147.98,21.05
             147.98,21.05 143.00,21.05 143.00,21.05
             143.00,21.05 138.00,21.05 138.00,21.05
             138.00,21.05 138.00,16.00 138.00,16.00 Z
           M 169.00,17.00
           C 174.14,15.54 179.86,15.54 185.00,17.00
             185.00,17.00 184.00,21.00 184.00,21.00
             184.00,21.00 170.00,21.00 170.00,21.00
             170.00,21.00 169.00,17.00 169.00,17.00 Z" />
</svg>
